<svg xmlns="http://www.w3.org/2000/svg" viewBox="0 0 640 640" role="img" aria-labelledby="title desc">
  <title id="title">Black Sentio canvas tote</title>
  <desc id="desc">A black canvas tote featuring the Sentio geometric artwork.</desc>
  <defs>
    <linearGradient id="bag" x1="0" y1="0" x2="1" y2="1">
      <stop offset="0" stop-color="#2b2b2b"/>
      <stop offset="1" stop-color="#080808"/>
    </linearGradient>
    <filter id="shadow" x="-20%" y="-20%" width="140%" height="160%">
      <feDropShadow dx="0" dy="20" stdDeviation="18" flood-color="#000" flood-opacity=".2"/>
    </filter>
  </defs>
  <g filter="url(#shadow)">
    <path d="M175 227h290l37 298H138Z" fill="url(#bag)"/>
    <path d="M226 246c2-102 35-151 94-151 60 0 91 49 94 151" fill="none" stroke="#181818" stroke-width="27"/>
    <path d="M226 246c2-102 35-151 94-151 60 0 91 49 94 151" fill="none" stroke="#3c3c3c" stroke-width="3" opacity=".7"/>
    <path d="M176 228h289" stroke="#444" stroke-width="4" opacity=".55"/>
  </g>
  <g fill="none" stroke="#f3f3ef" stroke-width="7" opacity=".95">
    <path d="M271 308h98M320 259v98"/>
    <path d="m278 390 84 84M362 390l-84 84"/>
    <rect x="272" y="371" width="96" height="120" transform="rotate(45 320 431)"/>
  </g>
  <text x="320" y="507" text-anchor="middle" fill="#f3f3ef" font-family="Arial, sans-serif" font-size="17" letter-spacing="8">SENTIO</text>
</svg>
